<?xml version="1.0" encoding="UTF-8"?>
<svg version="1.1" xmlns="http://www.w3.org/2000/svg" viewBox="0 0 2000 850" height="100%" width="100%">
<path d="M0 0 C3.04670081 0.00460337 6.09299969 -0.00219951 9.13964844 -0.02050781 C36.25632302 -0.18169049 62.86047843 1.55711605 89.66186523 5.94067383 C90.43004578 6.06406128 91.19822632 6.18744873 91.98968506 6.3145752 C163.47361152 17.87669079 233.29579652 40.75818312 299.28686523 70.31567383 C300.43123047 70.82807617 301.5755957 71.34047852 302.75463867 71.8684082 C327.8379112 83.16943373 352.03465391 95.76079384 375.69213867 109.79370117 C379.29353256 111.90614844 382.94347597 113.9246538 386.59936523 115.94067383 C401.80639125 124.40562985 416.21808241 134.09016336 430.28686523 144.31567383 C431.0287207 144.85417969 431.77057617 145.39268555 432.53491211 145.94750977 C471.48996772 174.29500775 471.48996772 174.29500775 488.96655273 190.21020508 C490.98840707 192.04485068 493.03365046 193.84336169 495.09936523 195.62817383 C504.96276116 204.26594068 514.38149491 213.30861521 523.66186523 222.56567383 C524.13585754 223.03707794 524.60984985 223.50848206 525.09820557 223.99417114 C530.72011919 229.59186811 536.14405199 235.27561077 541.28686523 241.31567383 C542.23601332 242.39890944 543.18648083 243.48099074 544.13842773 244.56176758 C551.93944226 253.50503873 559.20447576 262.7960417 566.28686523 272.31567383 C566.84583496 273.06429688 567.40480469 273.81291992 567.98071289 274.58422852 C592.37816428 307.38034318 612.27161452 345.06326088 620.28686523 385.31567383 C620.5356543 386.51579102 620.78444336 387.7159082 621.04077148 388.95239258 C629.00115831 434.20969669 614.60707373 481.71859175 588.78686523 518.82348633 C582.53858113 527.61501732 575.94518784 535.92061019 568.58764648 543.82739258 C566.59034089 545.98746671 564.68143185 548.19115328 562.78686523 550.44067383 C516.87693598 602.66848325 433.29915657 623.56320274 367.28686523 631.31567383 C366.29235352 631.43426758 365.2978418 631.55286133 364.27319336 631.67504883 C317.86926932 636.91068297 243.70074937 640.0226159 200.28686523 618.31567383 C200.33327148 619.31985352 200.37967773 620.3240332 200.42749023 621.35864258 C200.76846944 631.94851958 200.29398438 642.57633473 193.59936523 651.37817383 C185.92902285 659.01073127 174.67598132 660.21623379 164.28686523 660.31567383 C153.90500988 659.49605367 145.4071659 656.18961182 138.48217773 648.24536133 C133.04570802 640.6992168 130.54969391 632.21381921 128.72436523 623.19067383 C128.5803125 622.53365479 128.43625977 621.87663574 128.2878418 621.19970703 C127.41956016 616.7678954 127.3309004 612.86859596 127.70092773 608.36254883 C128.01337737 601.44508395 128.02720318 595.34866757 124.28686523 589.31567383 C116.29880659 582.09114642 104.89237982 578.29106877 95.08969116 574.21298218 C88.66867629 571.53981648 82.66204194 568.44853807 76.72436523 564.81567383 C75.89267822 564.31358398 75.06099121 563.81149414 74.20410156 563.29418945 C66.74875185 558.72216774 59.44837012 553.90087967 52.16186523 549.06567383 C51.32363724 548.50964478 51.32363724 548.50964478 50.46847534 547.94238281 C35.05218895 537.68064876 20.74043215 526.18071139 6.65795898 514.17895508 C4.4346 512.28436185 2.19723999 510.40873221 -0.05297852 508.54614258 C-13.42799214 497.39772973 -26.19680207 485.23319962 -36.71313477 471.31567383 C-37.60112489 470.18023315 -38.48914777 469.04481808 -39.37719727 467.90942383 C-51.94003088 451.58730685 -61.93362929 434.51511214 -59.71313477 413.31567383 C-56.33085856 395.1158066 -43.94379161 382.21958821 -29.24243164 371.94433594 C-22.32375186 367.26345148 -15.121431 363.16589873 -7.71313477 359.31567383 C-6.95210449 358.91880371 -6.19107422 358.52193359 -5.40698242 358.11303711 C32.19796519 338.76962292 84.2316204 319.31567383 127.28686523 319.31567383 C127.2857373 318.32615723 127.28460938 317.33664062 127.28344727 316.31713867 C127.31420603 293.75108177 128.56812628 271.49353739 131.09936523 249.06567383 C131.28634979 247.38087921 131.28634979 247.38087921 131.47711182 245.66204834 C133.58140409 226.92085598 135.90415178 207.94536256 141.28686523 189.81567383 C141.6387793 188.53756836 141.6387793 188.53756836 141.99780273 187.23364258 C143.43443132 182.267233 145.08461553 178.39595974 148.28686523 174.31567383 C151.82701601 172.54559844 155.43055857 172.67913603 159.28686523 173.31567383 C162.4021678 174.86759845 164.77406169 176.92695935 167.28686523 179.31567383 C167.87209961 179.8493457 168.45733398 180.38301758 169.06030273 180.93286133 C198.4202875 210.82424853 197.62063469 270.54136986 197.32202148 309.15161133 C197.30461914 310.71782227 197.30461914 310.71782227 197.28686523 312.31567383 C198.27686523 311.98567383 199.26686523 311.65567383 200.28686523 311.31567383 C201.75570672 311.2194789 203.22846888 311.17757863 204.70043945 311.17041016 C206.03992142 311.16084038 206.03992142 311.16084038 207.40646362 311.15107727 C208.85933273 311.14940804 208.85933273 311.14940804 210.34155273 311.14770508 C211.3529129 311.14437668 212.36427307 311.14104828 213.40628052 311.13761902 C215.55999294 311.13254706 217.71371325 311.13021078 219.86743164 311.13037109 C223.0868126 311.12822389 226.30582804 311.11018273 229.52514648 311.09106445 C249.32741419 311.03474445 268.61561474 312.95526535 288.16186523 316.00317383 C289.40679749 316.19583832 289.40679749 316.19583832 290.67687988 316.39239502 C332.12831838 322.85926113 378.62619339 331.16770275 411.28686523 359.31567383 C412.04354492 359.92797852 412.80022461 360.5402832 413.57983398 361.17114258 C428.89814369 373.95837185 436.13735254 390.3849442 438.60327148 409.80786133 C439.38432206 423.56442956 431.19975937 437.63478427 422.66967773 447.83520508 C411.34497304 459.62403701 396.76943758 467.83730039 380.22436523 468.62817383 C369.68145124 468.34677933 354.88926716 466.78793489 346.55249023 459.87817383 C345.28686523 458.31567383 345.28686523 458.31567383 344.91186523 455.31567383 C345.33947552 451.89479154 345.73755171 451.44639021 348.28686523 449.31567383 C349.70884216 448.47136436 351.1634591 447.68075463 352.63842773 446.93286133 C353.48622803 446.49192139 354.33402832 446.05098145 355.20751953 445.59667969 C356.09995361 445.13269775 356.9923877 444.66871582 357.91186523 444.19067383 C369.94612764 437.82153912 369.94612764 437.82153912 378.28686523 427.31567383 C378.89771624 422.87391435 379.0237832 419.44736928 376.53686523 415.62817383 C368.43458777 409.86309179 359.25765604 406.28053915 349.78686523 403.44067383 C348.68648926 403.10825684 347.58611328 402.77583984 346.45239258 402.43334961 C303.06011642 389.72079203 257.69697711 383.15172644 212.62060547 380.96118164 C211.8892186 380.92455414 211.15783173 380.88792664 210.40428162 380.85018921 C208.40699776 380.75130878 206.40943707 380.6580666 204.41186523 380.56518555 C201.28686523 380.31567383 201.28686523 380.31567383 198.28686523 379.31567383 C198.30232643 379.98025447 198.31778763 380.64483511 198.33371735 381.32955456 C198.71521791 397.74352742 199.09079486 414.15762512 199.46031952 430.57187176 C199.63917507 438.51070807 199.81983389 446.44949472 200.00512695 454.38818359 C200.8361258 490.03384401 201.56987639 525.65717523 201.28686523 561.31567383 C249.12999905 569.66697772 297.85947951 572.70390606 346.28686523 567.31567383 C347.45056641 567.19208496 348.61426758 567.06849609 349.81323242 566.94116211 C408.6497499 560.50859824 475.41528932 541.9154609 515.09936523 494.81567383 C536.33018007 467.74256642 546.34717296 433.92094332 542.53686523 399.62817383 C539.70624065 378.16707888 532.40260331 358.26088467 522.27368164 339.18334961 C521.29399565 337.32916905 520.3409593 335.46324884 519.39233398 333.59301758 C509.60077891 314.49421551 497.09437561 296.70757072 483.28686523 280.31567383 C482.8655835 279.81034119 482.44430176 279.30500854 482.01025391 278.78436279 C474.81309141 270.15690938 467.27226814 262.00896408 459.28540039 254.10839844 C457.51825814 252.35976158 455.75949908 250.60300392 454.00170898 248.8449707 C448.26533955 243.12635999 442.48600528 237.53680731 436.28686523 232.31567383 C435.27697386 231.43896366 434.26781803 230.56140524 433.25952148 229.68286133 C424.52956213 222.20673506 415.48194194 215.20853493 406.28686523 208.31567383 C405.13710205 207.45039063 405.13710205 207.45039063 403.96411133 206.56762695 C392.66159466 198.07725336 381.15456497 189.99582569 369.28686523 182.31567383 C368.52937988 181.82357422 367.77189453 181.33147461 366.99145508 180.82446289 C343.46259215 165.58795043 318.83718007 151.70381663 293.61889648 139.45727539 C290.93655856 138.14418786 288.26880668 136.80321681 285.59936523 135.46411133 C210.36472573 98.09041955 126.56218477 73.0573696 -25.45532227 57.11254883 C-26.82458526 57.10556821 -28.19384795 57.09852726 -29.56311035 57.09143066 C-33.90478936 57.07219156 -38.24641775 57.06725721 -42.58813477 57.06567383 C-43.32588387 57.06508469 -44.06363297 57.06449554 -44.8237381 57.06388855 C-79.20291346 57.04449558 -113.93771062 57.59307687 -146.71313477 69.31567383 C-147.37313477 69.97567383 -148.03313477 70.63567383 -148.71313477 71.31567383 C-148.00817871 71.4054248 -147.30322266 71.49517578 -146.5769043 71.58764648 C-143.32705762 72.01510379 -140.08309439 72.47762903 -136.83813477 72.94067383 C-135.72954102 73.08118164 -134.62094727 73.22168945 -133.47875977 73.36645508 C-125.99752805 74.46663621 -119.55541534 76.30351593 -113.71313477 81.31567383 C-111.92931436 84.30445693 -110.93232683 86.82794126 -110.71313477 90.31567383 C-112.11465391 94.10801976 -114.21699435 96.33137792 -117.71313477 98.31567383 C-124.12078178 100.28502975 -130.03139655 100.66658422 -136.71313477 100.62817383 C-138.22846802 100.620802 -138.22846802 100.620802 -139.77441406 100.61328125 C-152.97343258 100.40896208 -167.58153177 99.3554536 -177.44360352 89.62036133 C-181.39854575 84.63256573 -180.54126865 78.36648376 -179.9909668 72.34350586 C-177.81743706 56.47941271 -165.40379686 40.49493206 -153.27563477 30.75317383 C-128.75367679 13.09008033 -94.29033358 9.15653426 -65.21313477 4.56567383 C-63.96363037 4.36707764 -62.71412598 4.16848145 -61.42675781 3.96386719 C-57.52749 3.37029588 -53.62342701 2.82997017 -49.71313477 2.31567383 C-49.0294986 2.22138092 -48.34586243 2.12708801 -47.64151001 2.02993774 C-31.81922715 -0.09391464 -15.93186579 -0.02600794 0 0 Z M118.87353516 382.56591797 C117.95066711 382.64697784 117.02779907 382.72803772 116.07696533 382.81155396 C115.06728699 382.90701508 114.05760864 383.0024762 113.01733398 383.10083008 C111.96600281 383.1967746 110.91467163 383.29271912 109.83148193 383.39157104 C106.37819194 383.71143258 102.9262122 384.04311188 99.47436523 384.37817383 C98.29883087 384.4913797 97.12329651 384.60458557 95.91213989 384.72122192 C33.84021053 390.62717085 33.84021053 390.62717085 -24.77563477 410.37817383 C-25.71282349 410.83426025 -25.71282349 410.83426025 -26.66894531 411.29956055 C-31.03789977 413.58998658 -34.73366678 416.37826814 -37.71313477 420.31567383 C-39.03425374 424.84725397 -38.24440024 429.78519151 -36.46313477 434.12817383 C-32.75595737 440.65545402 -26.91470142 445.97814129 -21.71313477 451.31567383 C-20.96032227 452.0968457 -20.20750977 452.87801758 -19.43188477 453.68286133 C-15.69108616 457.49788213 -11.79887718 461.08368512 -7.74047852 464.55786133 C-6.41839634 465.70417535 -5.11736766 466.87537153 -3.84204102 468.07348633 C14.89947937 485.53634548 38.20681978 498.61035345 60.28686523 511.31567383 C61.6270874 512.09177002 61.6270874 512.09177002 62.99438477 512.88354492 C82.93866024 524.36307764 103.57426085 532.65240169 125.28686523 540.31567383 C125.28686523 488.50567383 125.28686523 436.69567383 125.28686523 383.31567383 C122.82891653 382.08669947 121.59816703 382.31985166 118.87353516 382.56591797 Z " fill="#000000" transform="translate(179.713134765625,-0.315673828125)"/>
<path d="M0 0 C2.69105198 2.17574416 4.45532928 3.91065856 6 7 C8.92745464 35.47995157 -10.60556443 63.71004908 -24.5 86.9375 C-40.77513395 114.26803907 -64.25095727 154.5875889 -57 188 C-50.82575229 179.83441834 -44.71121993 171.63518731 -38.75 163.3125 C-33.83282915 156.46149219 -28.79815302 149.70788114 -23.6875 143 C-23.04200195 142.15219971 -22.39650391 141.30439941 -21.73144531 140.4309082 C-7.30212879 121.56677486 8.04849665 103.75783729 24.95068359 87.06835938 C28.18926686 83.85708288 31.20412562 80.52779196 34.1640625 77.0625 C39.98321785 70.52523612 46.33031477 64.39163303 53 58.73046875 C54.42619202 57.49647838 55.81897753 56.22343381 57.1875 54.92578125 C70.87561836 42.02563023 91.53959582 27.31438456 111 27 C123.47784923 28.0746473 132.34513881 34.36021697 141 43 C141.55429688 43.54269531 142.10859375 44.08539063 142.6796875 44.64453125 C150.91514714 53.43644086 156.42415168 65.66048101 160 77 C160.22848633 77.6614502 160.45697266 78.32290039 160.69238281 79.00439453 C165.30732081 92.78988254 165.50866049 106.73869171 165.5625 121.125 C165.57117096 122.05418243 165.57984192 122.98336487 165.58877563 123.94070435 C165.86380181 166.47511827 148.55000776 207.25406776 118.87817383 237.60717773 C110.13234301 246.44599589 101.1745234 254.8301978 91 262 C90.44425293 262.40009277 89.88850586 262.80018555 89.31591797 263.21240234 C54.16232457 288.40166743 16.0922409 301.08790613 -27 300 C-27.15855469 300.5355249 -27.31710937 301.0710498 -27.48046875 301.62280273 C-29.05193628 306.89774606 -30.66904079 312.15725406 -32.3125 317.41015625 C-39.49908011 340.4469241 -46.0149645 363.62255363 -52 387 C-52.2004895 387.78072876 -52.400979 388.56145752 -52.60754395 389.36584473 C-60.19341168 418.99052205 -66.25275415 448.95487798 -72.37963867 478.90722656 C-78.11823659 506.93878818 -78.11823659 506.93878818 -80.85546875 518.57421875 C-81.04772537 519.40000931 -81.23998199 520.22579987 -81.43806458 521.07661438 C-83.51252605 529.65647514 -83.51252605 529.65647514 -86.9375 532.75 C-92.32727107 534.94990656 -97.33335219 535.43726486 -102.87597656 533.26464844 C-118.65719952 525.84599148 -132.3324727 514.8934511 -138.8125 498.375 C-145.77672483 477.04706147 -143.78632221 453.50644332 -140.54345703 431.66943359 C-140.15179614 429.02493079 -139.76952608 426.38022032 -139.39794922 423.73291016 C-131.9977133 371.129002 -118.90587417 320.9319625 -99.69140625 271.3984375 C-99.42999344 270.72193146 -99.16858063 270.04542542 -98.89924622 269.34841919 C-97.67294233 266.17970039 -96.43156464 263.01962423 -95.16235352 259.86767578 C-94.72979248 258.76665527 -94.29723145 257.66563477 -93.8515625 256.53125 C-93.46822754 255.57798828 -93.08489258 254.62472656 -92.68994141 253.64257812 C-91.26980745 248.203254 -93.92897017 243.26932372 -95.8125 238.1875 C-112.56950849 191.64807726 -104.27809957 144.93742883 -83.69140625 101.01171875 C-69.38573659 71.27006923 -50.15723818 44.22916696 -29 19 C-28.14921875 17.94619141 -28.14921875 17.94619141 -27.28125 16.87109375 C-20.82878934 9.0946612 -10.94249252 -2.15436987 0 0 Z M110.578125 85.51953125 C109.42570312 86.65455078 109.42570312 86.65455078 108.25 87.8125 C106.96029297 89.06353516 106.96029297 89.06353516 105.64453125 90.33984375 C104.77183594 91.21769531 103.89914062 92.09554687 103 93 C102.15824219 93.80566406 101.31648438 94.61132812 100.44921875 95.44140625 C94.45243959 101.2516604 89.18381814 107.46534977 84 114 C83.07693984 115.13396906 82.1523913 116.26672776 81.2265625 117.3984375 C65.55969201 136.62465849 52.11361794 157.21026254 38.95654297 178.20043945 C35.75918776 183.27862247 32.49735042 188.3111807 29.19921875 193.32421875 C28.77719177 193.96598557 28.35516479 194.60775238 27.92034912 195.26896667 C25.81372672 198.47033441 23.70256291 201.66859839 21.58544922 204.86303711 C13.86220916 214.78948112 13.86220916 214.78948112 10 226 C29.74472478 227.25437075 47.98708813 219.09226319 65 210 C66.08667969 209.42121094 67.17335938 208.84242188 68.29296875 208.24609375 C94.92109306 193.39910594 113.17537045 168.67117327 122.5 139.9375 C123.0341289 137.96726981 123.5366563 135.98806773 124 134 C124.22171875 133.06929687 124.4434375 132.13859375 124.671875 131.1796875 C127.42049745 117.54800591 128.20986354 99.70808427 121.1875 87.25 C117.91608832 83.88511941 114.68653809 82.94183336 110.578125 85.51953125 Z " fill="#000000" transform="translate(1835,316)"/>
<path d="M0 0 C0.89507263 -0.00067474 1.79014526 -0.00134949 2.71234131 -0.00204468 C32.86622956 0.03378504 63.38622139 2.54534393 91.5 14.25 C92.16451172 14.52602051 92.82902344 14.80204102 93.51367188 15.08642578 C105.38748548 20.15741301 105.38748548 20.15741301 108.5 24.5625 C110.12148387 30.54172176 109.02169971 35.13026112 106.33203125 40.64453125 C101.08707447 49.26859183 93.77036326 54.58801378 84.1328125 57.4140625 C57.93557842 63.44224325 30.36594705 63.26280383 3.625 64.25 C-48.38076692 66.16034881 -48.38076692 66.16034881 -99.8125 73.75 C-100.74191406 73.93925049 -101.67132812 74.12850098 -102.62890625 74.32348633 C-107.33956663 75.35093025 -111.95523478 76.60946121 -116.54296875 78.09375 C-117.44426514 78.38443359 -118.34556152 78.67511719 -119.27416992 78.97460938 C-122.13660657 80.6147727 -122.59488486 82.14821172 -123.5 85.25 C-110.89712491 88.94058746 -98.26486418 90.63512447 -85.24517822 92.14312744 C-81.53709545 92.57268313 -77.83073355 93.01513887 -74.12451172 93.46044922 C-63.62324798 94.71831293 -53.11832984 95.94465813 -42.61328125 97.17041016 C-36.18136127 97.92093548 -29.75037813 98.67914549 -23.31976318 99.44076538 C-19.7493211 99.86038891 -16.17775621 100.26911888 -12.60595703 100.67700195 C62.126149 109.38168578 62.126149 109.38168578 82.859375 132.9296875 C99.61537309 154.12771193 103.71405994 178.25692095 101.28173828 204.61523438 C100.72432948 208.61603848 99.73528726 212.41019141 98.5 216.25 C98.14808594 217.35085938 97.79617188 218.45171875 97.43359375 219.5859375 C89.08560651 243.22479247 70.27834352 259.22954247 48.35546875 270.02734375 C30.09839665 278.60500419 9.19374257 283.28057132 -10.96875 283.48828125 C-11.75831589 283.4980751 -12.54788177 283.50786896 -13.3613739 283.51795959 C-38.52712901 283.76569379 -61.59509405 281.62652398 -85.5 273.25 C-86.3245166 272.96141113 -87.1490332 272.67282227 -87.99853516 272.37548828 C-114.8842134 262.74705151 -144.50456022 245.67859332 -158 219.3203125 C-163.17216324 208.24130373 -164.90469757 195.1814045 -161 183.3125 C-155.02261215 169.68572771 -144.76663734 160.49802763 -131.2734375 154.6328125 C-86.73015502 137.48958947 -29.74424162 148.47685758 12.64453125 167.0390625 C18.8363916 169.8978576 23.13712828 172.01045488 26.5 178.25 C26.5 182.10434922 25.94387891 184.45873759 24.0625 187.8125 C9.75831321 201.41892158 -13.60381685 206.01288981 -32.76953125 205.77954102 C-48.23848107 205.17881882 -61.9611144 198.61848817 -75.99804688 192.61621094 C-91.64744524 185.95135817 -107.38245216 179.50815265 -124.5 184.25 C-127.93595207 185.6725861 -127.93595207 185.6725861 -130.5 187.25 C-131.49 187.58 -132.48 187.91 -133.5 188.25 C-135.54287771 192.10066235 -136.5 196.09891447 -136.5 200.4375 C-134.49355568 206.08062464 -131.33442795 209.0397442 -126.1875 211.8125 C-110.2693562 219.14478021 -93.86924778 221.64319171 -76.4375 221.5625 C-75.1489209 221.55758545 -73.8603418 221.5526709 -72.53271484 221.54760742 C-33.50255428 221.18376694 18.59965661 214.72368685 48.5 186.25 C51.36310497 183.20748375 52.43531924 180.87524737 52.875 176.625 C52.32944799 171.71503189 50.82913692 169.01716841 47.2109375 165.59765625 C29.33473601 151.51708658 3.2849022 148.09548933 -18.44140625 144.85546875 C-19.15778196 144.74853321 -19.87415768 144.64159767 -20.61224174 144.53142166 C-40.20149982 141.64687787 -59.91495721 140.04515539 -79.637146 138.37304688 C-87.43205702 137.71210009 -95.22610574 137.04194396 -103.01898003 136.35739517 C-105.68850637 136.12558033 -108.35868533 135.90306112 -111.02906799 135.68136597 C-155.5651219 131.86976778 -155.5651219 131.86976778 -169.375 117.5625 C-177.75175661 106.94798099 -177.83466615 94.2121797 -176.5 81.25 C-173.31190796 61.86295379 -160.63483076 45.97702335 -145.05859375 34.69140625 C-104.28246876 6.23059748 -48.39177915 0.03305832 0 0 Z " fill="#000000" transform="translate(1108.5,312.75)"/>
<path d="M0 0 C1.03260704 -0.00904106 1.03260704 -0.00904106 2.08607483 -0.01826477 C18.93888168 0.03868466 33.74378261 6.78287112 46.00390625 18.15234375 C47.97614969 20.29441646 49.78362141 22.53879279 51.56640625 24.83984375 C52.04384277 25.45126221 52.5212793 26.06268066 53.01318359 26.69262695 C59.30852928 34.94002618 64.24533975 43.50887708 63.00390625 54.15234375 C60.33549313 60.18527776 55.92086203 62.77914739 50.00390625 65.15234375 C40.00094966 68.38655604 29.7385926 69.69282618 19.31640625 70.83984375 C17.69061646 71.01894287 17.69061646 71.01894287 16.03198242 71.20166016 C-3.22640733 73.13998181 -22.53346778 73.29466417 -41.87109375 73.21484375 C-44.03515519 73.20980878 -46.19921779 73.20524947 -48.36328125 73.20117188 C-53.57424838 73.19034721 -58.78515751 73.17319776 -63.99609375 73.15234375 C-64.15480957 73.8383667 -64.31352539 74.52438965 -64.47705078 75.23120117 C-67.08307258 86.36094919 -70.61595604 97.23936735 -73.99609375 108.15234375 C-72.70729309 108.14568192 -72.70729309 108.14568192 -71.39245605 108.1388855 C-63.27164878 108.09871204 -55.15087518 108.0683103 -47.02999115 108.04871941 C-42.85556274 108.03830876 -38.68121686 108.02419956 -34.50683594 108.00146484 C-30.47383316 107.97963905 -26.44090948 107.96775469 -22.40785217 107.96258926 C-20.87377173 107.95891092 -19.33969532 107.95172824 -17.8056488 107.94088364 C2.48521211 107.80322426 2.48521211 107.80322426 10.00390625 114.15234375 C15.45196977 121.17592834 16.19700696 127.36442613 16.25390625 136.02734375 C16.28484375 137.19330078 16.28484375 137.19330078 16.31640625 138.3828125 C16.35242699 143.74089713 15.52088165 147.40208082 13.00390625 152.15234375 C7.73347324 157.42277676 2.0020459 158.38550148 -5.24462891 158.54711914 C-5.944897 158.56531204 -6.6451651 158.58350494 -7.36665344 158.60224915 C-9.67270526 158.66009718 -11.97882113 158.70499557 -14.28515625 158.75 C-15.91020797 158.78870638 -17.53523856 158.82830887 -19.1602478 158.86875916 C-23.44316334 158.97331349 -27.7262431 159.06726545 -32.00946045 159.1585083 C-38.80157954 159.30502086 -45.59335313 159.46730708 -52.38512421 159.62903976 C-54.02263207 159.66791402 -55.66014941 159.7063911 -57.29767609 159.74446487 C-69.20885596 160.02255384 -81.10268711 160.42208052 -92.99609375 161.15234375 C-93.10187744 161.79187988 -93.20766113 162.43141602 -93.31665039 163.09033203 C-94.22943036 167.20390959 -95.54776496 171.14558625 -96.8671875 175.14453125 C-97.14957779 176.00869659 -97.43196808 176.87286194 -97.72291565 177.76321411 C-98.62378841 180.51881212 -99.52845038 183.27314587 -100.43359375 186.02734375 C-101.33462864 188.77457189 -102.23482381 191.52206909 -103.13356018 194.27005005 C-103.69194418 195.9768072 -104.25171426 197.68311171 -104.81309509 199.3888855 C-106.30817237 203.95262668 -107.70961041 208.52533454 -108.99609375 213.15234375 C-93.14007394 211.83760884 -77.55342134 209.42489726 -61.87109375 206.77734375 C-53.74017389 205.41691747 -45.60799844 204.06415554 -37.47351074 202.72521973 C-35.12756648 202.33874462 -32.78195069 201.9502711 -30.43664551 201.55993652 C-26.96060861 200.98439892 -23.4826477 200.42221151 -20.00390625 199.86328125 C-18.97208221 199.69035553 -17.94025818 199.51742981 -16.87716675 199.33926392 C-9.00721471 198.09514915 -0.50868479 196.8506348 7.25390625 199.08984375 C15.9868759 205.63957099 20.60000797 213.94064891 24.00390625 224.15234375 C24.70867016 231.30396439 24.46525532 237.32456054 20.00390625 243.15234375 C-6.26869463 271.81819775 -52.76473155 291.0202242 -89.99609375 298.15234375 C-90.93324219 298.34183594 -91.87039063 298.53132813 -92.8359375 298.7265625 C-113.47796908 301.50775093 -133.47219095 298.07474692 -150.30859375 285.33984375 C-164.05718156 273.72503677 -172.3906379 255.77604042 -174.99609375 238.15234375 C-175.27167966 234.79170842 -175.33091562 231.46076571 -175.30859375 228.08984375 C-175.3029541 227.18081299 -175.29731445 226.27178223 -175.29150391 225.33520508 C-174.99840862 208.74049811 -170.70724938 194.32859762 -163.79296875 179.34765625 C-159.58603661 170.12722026 -156.62498577 163.37445372 -158.99609375 153.15234375 C-159.39497837 151.13105277 -159.77622175 149.10677693 -160.15844727 147.08227539 C-160.42302309 145.68223507 -160.6916739 144.28295805 -160.96459961 142.88452148 C-162.17231834 136.58838275 -163.00139273 131.16824068 -160.93359375 124.96484375 C-155.98088226 117.77542385 -150.38607854 115.05731614 -141.99609375 113.15234375 C-140.73796875 112.96671875 -139.47984375 112.78109375 -138.18359375 112.58984375 C-132.30260285 109.93763217 -130.69517963 103.0496052 -128.48706055 97.27124023 C-126.86092613 92.91458148 -125.3013907 88.53467741 -123.74609375 84.15234375 C-122.93550995 81.88569344 -122.12318892 79.61967612 -121.30987549 77.35400391 C-120.80819281 75.95464261 -120.30839992 74.554602 -119.81072998 73.15380859 C-118.10461598 68.3693882 -118.10461598 68.3693882 -116.99609375 66.15234375 C-118.1459375 66.03246094 -119.29578125 65.91257812 -120.48046875 65.7890625 C-135.51911428 63.89435188 -152.42539632 58.39822408 -161.99609375 46.15234375 C-165.07859424 41.45220451 -166.89073916 36.84149143 -166.99609375 31.15234375 C-166.09278409 27.67807583 -165.07864874 25.85545761 -162.03881836 23.88110352 C-155.3090123 20.43268793 -148.77416954 18.64277687 -141.37109375 17.21484375 C-140.12674561 16.96742432 -138.88239746 16.72000488 -137.6003418 16.46508789 C-100.28566852 9.18331173 -62.27203883 4.81115706 -24.43359375 1.33984375 C-23.42888031 1.24468979 -23.42888031 1.24468979 -22.40386963 1.14761353 C-14.93420886 0.44898123 -7.4997296 0.03953822 0 0 Z " fill="#000000" transform="translate(1667.99609375,304.84765625)"/>
<path d="M0 0 C7.32225393 2.04693403 12.68890646 7.84912044 18 13 C18.54930176 13.5259375 19.09860352 14.051875 19.66455078 14.59375 C23.76918917 18.59170148 27.35219751 22.76573123 30.75 27.375 C31.51534058 28.40765991 31.51534058 28.40765991 32.29614258 29.46118164 C58.92937978 65.80612218 74.49747226 107.70455278 82 152 C82.16371094 152.91088379 82.32742188 153.82176758 82.49609375 154.76025391 C90.17866356 198.59375915 87.71808017 248.51863755 62 286 C54.9957436 295.44287565 44.04566187 303.27899965 32.38671875 305.71484375 C22.98705256 306.83788079 13.12813553 307.44825259 5 302 C-30.77325119 272.28845505 -51.06698368 220.95577011 -72.0625 180.375 C-77.21145711 170.44593873 -77.21145711 170.44593873 -82.5625 160.625 C-83.14128906 159.58601562 -83.72007813 158.54703125 -84.31640625 157.4765625 C-85.9913903 155.01266485 -87.5106517 153.60146258 -90 152 C-91.56645008 165.93140707 -92.37108682 179.87572575 -93 193.875 C-93.04140106 194.79218811 -93.08280212 195.70937622 -93.12545776 196.65435791 C-93.65593991 208.5639835 -94.09015618 220.47512623 -94.46484375 232.390625 C-94.54485235 234.86214418 -94.62493046 237.33366111 -94.70507812 239.80517578 C-94.85846686 244.54807144 -94.99716575 249.29107487 -95.12695312 254.03466797 C-95.46883815 265.42709973 -96.12001153 276.72367389 -97.37890625 288.0546875 C-97.5494175 289.63360275 -97.5494175 289.63360275 -97.72337341 291.24441528 C-99.0316612 302.13486446 -101.29085303 312.57631038 -109.5 320.375 C-114.55975453 323.66384044 -118.965422 324.79914615 -125 324 C-134.5854199 321.76293007 -141.62507554 317.25285272 -146.97265625 308.9296875 C-171.38013141 263.43125186 -156.03150142 196.54712667 -145 149 C-144.57726807 147.16937012 -144.57726807 147.16937012 -144.14599609 145.30175781 C-140.47518189 129.68204814 -136.02975401 114.43845194 -130.875 99.25 C-130.62723816 98.51215271 -130.37947632 97.77430542 -130.12420654 97.01409912 C-121.22232691 70.66426965 -121.22232691 70.66426965 -110.1875 63.0625 C-102.86436088 60.62145363 -97.48055835 61.76341743 -90.65234375 65.125 C-83.49702113 70.18325458 -78.35764998 76.8682405 -73.5 84.0625 C-72.27879524 85.83994641 -71.05743494 87.61728596 -69.8359375 89.39453125 C-68.89379395 90.77439209 -68.89379395 90.77439209 -67.93261719 92.18212891 C-66.00574849 94.99161836 -64.05785896 97.7851547 -62.1015625 100.57421875 C-43.70992407 126.80324179 -26.15216114 153.61141908 -8.9375 180.625 C-3.44414809 189.23416799 2.11037399 197.79856717 7.75 206.3125 C8.75172241 207.83447998 8.75172241 207.83447998 9.77368164 209.38720703 C10.40008545 210.32806152 11.02648926 211.26891602 11.671875 212.23828125 C12.2194043 213.06368408 12.76693359 213.88908691 13.33105469 214.73950195 C16.56768214 219.16965731 16.56768214 219.16965731 21.25 221.75 C21.8275 221.8325 22.405 221.915 23 222 C20.13764233 164.101253 7.62085398 109.88357722 -7.80859375 54.16088867 C-18.56645235 15.21050899 -18.56645235 15.21050899 -14.6875 4.3125 C-10.75620475 -1.07483053 -6.10933154 -0.70316671 0 0 Z " fill="#000000" transform="translate(1386,273)"/>
<path d="M0 0 C1.89952159 1.81724476 3.27003917 3.5863564 4.76171875 5.734375 C7.99933378 9.78367379 12.16726294 10.31743443 17.05029297 11.43774414 C28.96348883 14.24554365 38.57084637 20.20670029 47.07421875 28.984375 C47.73164062 29.644375 48.3890625 30.304375 49.06640625 30.984375 C58.88163023 41.43148035 61.94020639 53.92796765 62.07421875 67.984375 C59.89008034 97.93827315 40.5928882 120.37285779 19.19921875 139.546875 C17.83089535 140.70067312 16.45462826 141.84506441 15.07421875 142.984375 C14.54699219 143.43071289 14.01976562 143.87705078 13.4765625 144.33691406 C-16.80188079 169.95587769 -53.90301226 191.40380058 -93.92578125 195.984375 C-94.89902344 196.12875 -95.87226562 196.273125 -96.875 196.421875 C-112.20043953 198.19659417 -129.269632 195.96309889 -143.765625 190.75390625 C-145.85759642 189.8725147 -145.85759642 189.8725147 -147.92578125 189.984375 C-148.44527344 190.93699219 -148.96476563 191.88960937 -149.5 192.87109375 C-150.20398491 194.13826659 -150.90843697 195.40517998 -151.61328125 196.671875 C-151.95294922 197.29771484 -152.29261719 197.92355469 -152.64257812 198.56835938 C-156.07422541 204.69401014 -160.11909677 209.58201577 -166.92578125 211.984375 C-172.17463122 212.15369274 -174.96475614 211.34532657 -179.05078125 208.046875 C-188.068213 199.3660468 -192.10527318 188.37475243 -192.34960938 176.03125 C-192.35876385 174.24220334 -192.36393795 172.45313211 -192.36523438 170.6640625 C-192.54458512 162.25313094 -195.32810924 156.81179005 -200.36328125 150.171875 C-204.02057657 145.04226379 -206.68557535 139.8679927 -208.92578125 133.984375 C-209.24675781 133.15292969 -209.56773437 132.32148438 -209.8984375 131.46484375 C-216.33922577 111.00410705 -211.66206398 88.7953 -202.25390625 70.19140625 C-195.97822975 58.45286678 -187.11699624 48.50630837 -177.92578125 38.984375 C-177.20003906 38.20707031 -176.47429688 37.42976563 -175.7265625 36.62890625 C-135.81624657 -5.05192277 -50.71037158 -42.13615416 0 0 Z M-161.92578125 77.984375 C-170.21967475 88.78719384 -175.39522785 99.0623104 -173.92578125 112.984375 C-173.15776215 115.85782578 -172.1781465 118.27091695 -170.92578125 120.984375 C-166.65359062 117.00843116 -163.45862631 112.66862827 -160.17578125 107.859375 C-153.01032236 97.55415628 -145.16455417 88.08933875 -136.625 78.90625 C-134.12090534 76.19559471 -131.6765128 73.4416389 -129.23828125 70.671875 C-125.97091424 67.02593606 -122.5574132 63.776872 -118.81640625 60.625 C-116.95728479 59.01171278 -115.25847298 57.31840567 -113.55078125 55.546875 C-109.9427817 51.85516316 -105.9485326 48.73666293 -101.8671875 45.5859375 C-101.22652344 45.05742188 -100.58585938 44.52890625 -99.92578125 43.984375 C-99.92578125 43.654375 -99.92578125 43.324375 -99.92578125 42.984375 C-122.99063415 41.17536693 -147.79096213 61.20146322 -161.92578125 77.984375 Z M-12.86328125 48.984375 C-13.60054443 49.20657715 -14.33780762 49.4287793 -15.09741211 49.65771484 C-33.98113884 55.63880351 -49.99595165 67.25136318 -64.92578125 79.984375 C-65.93125 80.80550781 -66.93671875 81.62664062 -67.97265625 82.47265625 C-84.27274426 95.89883911 -99.35489312 110.91686194 -111.609375 128.14208984 C-112.87809402 129.91763765 -114.17578556 131.66680624 -115.48828125 133.41015625 C-119.2942337 137.77337257 -119.2942337 137.77337257 -120.92578125 142.984375 C-115.25768402 144.87374074 -108.93468308 144.22945924 -102.98828125 144.234375 C-102.26437195 144.23504974 -101.54046265 144.23572449 -100.7946167 144.23641968 C-88.95418694 144.21887174 -77.50973684 143.57217159 -65.92578125 140.984375 C-64.7955957 140.73494141 -64.7955957 140.73494141 -63.64257812 140.48046875 C-51.75866958 137.74969828 -40.86494121 133.31138 -29.92578125 127.984375 C-29.26980957 127.67129395 -28.61383789 127.35821289 -27.93798828 127.03564453 C-7.90415355 117.38404703 11.90163686 102.79631667 21.07421875 81.984375 C23.58907162 74.03255278 23.782336 66.64420998 20.57421875 58.859375 C17.33565948 52.87687279 11.61990452 49.94997995 5.44921875 47.609375 C-1.03041333 46.40944313 -6.60432983 47.09799557 -12.86328125 48.984375 Z " fill="#000000" transform="translate(983.92578125,74.015625)"/>
<path d="M0 0 C9.40740078 2.87005447 14.9969922 8.54319517 19.76171875 17.0703125 C28.27841379 35.38818774 29.31069134 58.40202019 31.07421875 78.2578125 C31.15726257 79.17822327 31.2403064 80.09863403 31.3258667 81.04693604 C33.65917829 107.19539336 34.91142529 133.41039119 36.07421875 159.6328125 C36.12749329 160.83035156 36.18076782 162.02789062 36.23565674 163.26171875 C37.27065324 186.72851026 38.23486569 210.20293064 38.32421875 233.6953125 C38.32948578 234.38639099 38.33475281 235.07746948 38.34017944 235.78948975 C38.48407171 259.62486364 38.48407171 259.62486364 32.07421875 269.6328125 C31.51734375 270.5403125 30.96046875 271.4478125 30.38671875 272.3828125 C25.08674676 277.539542 18.61011269 279.11960936 11.3737793 279.18920898 C10.49117432 279.17059814 9.60856934 279.1519873 8.69921875 279.1328125 C7.7760083 279.12000244 6.85279785 279.10719238 5.90161133 279.09399414 C-4.13969431 278.79561481 -11.84806816 276.63481222 -19.2109375 269.54296875 C-31.1870732 256.20280848 -31.08073228 236.43765328 -32.05078125 219.4453125 C-32.09247437 218.72226929 -32.13416748 217.99922607 -32.17712402 217.25427246 C-41.80580862 43.63154032 -41.80580862 43.63154032 -10.4921875 2.76171875 C-7.28871773 -0.44175102 -4.37069858 -0.91576542 0 0 Z " fill="#000000" transform="translate(869.92578125,316.3671875)"/>
</svg>
